<svg xmlns="http://www.w3.org/2000/svg" width="512" height="548" viewBox="0 0 512 548" fill="none"><rect y="35.5431" width="512" height="512" rx="145" fill="black"></rect><rect y="35.5431" width="512" height="512" rx="145" fill="black"></rect><path d="M72.2919 272.543V165.634H114.471C122.58 165.634 129.488 167.183 135.195 170.28C140.902 173.342 145.252 177.606 148.245 183.069C151.273 188.498 152.787 194.763 152.787 201.862C152.787 208.961 151.256 215.226 148.193 220.655C145.131 226.084 140.694 230.312 134.882 233.34C129.105 236.367 122.11 237.881 113.897 237.881H87.0128V219.767H110.243C114.593 219.767 118.177 219.019 120.996 217.522C123.85 215.991 125.973 213.886 127.365 211.206C128.792 208.492 129.505 205.377 129.505 201.862C129.505 198.312 128.792 195.215 127.365 192.57C125.973 189.89 123.85 187.82 120.996 186.358C118.142 184.862 114.523 184.113 110.138 184.113H94.8952V272.543H72.2919ZM167.051 272.543V192.361H188.61V206.351H189.446C190.907 201.375 193.361 197.616 196.806 195.076C200.251 192.5 204.219 191.213 208.708 191.213C209.822 191.213 211.022 191.282 212.31 191.422C213.598 191.561 214.729 191.752 215.703 191.996V211.728C214.659 211.415 213.215 211.136 211.37 210.893C209.526 210.649 207.838 210.527 206.307 210.527C203.035 210.527 200.112 211.241 197.537 212.668C194.996 214.06 192.978 216.009 191.481 218.514C190.02 221.02 189.289 223.908 189.289 227.18V272.543H167.051ZM260.009 274.109C251.761 274.109 244.662 272.439 238.711 269.098C232.795 265.722 228.236 260.954 225.034 254.794C221.832 248.6 220.232 241.274 220.232 232.818C220.232 224.57 221.832 217.331 225.034 211.102C228.236 204.872 232.743 200.017 238.554 196.537C244.401 193.057 251.257 191.317 259.122 191.317C264.412 191.317 269.336 192.17 273.895 193.875C278.489 195.546 282.491 198.069 285.901 201.444C289.347 204.82 292.026 209.066 293.94 214.182C295.854 219.263 296.811 225.214 296.811 232.035V238.142H229.106V224.361H275.879C275.879 221.159 275.183 218.323 273.79 215.852C272.398 213.381 270.467 211.45 267.996 210.058C265.56 208.631 262.724 207.917 259.487 207.917C256.112 207.917 253.119 208.7 250.509 210.266C247.933 211.798 245.915 213.868 244.453 216.478C242.991 219.054 242.243 221.925 242.208 225.092V238.194C242.208 242.162 242.939 245.59 244.401 248.478C245.897 251.367 248.003 253.594 250.717 255.16C253.432 256.726 256.651 257.509 260.375 257.509C262.846 257.509 265.108 257.161 267.161 256.465C269.214 255.769 270.972 254.725 272.433 253.333C273.895 251.941 275.009 250.236 275.774 248.217L296.342 249.574C295.298 254.516 293.157 258.831 289.921 262.52C286.719 266.174 282.578 269.028 277.497 271.081C272.451 273.1 266.621 274.109 260.009 274.109ZM378.037 215.226L357.679 216.478C357.331 214.738 356.582 213.172 355.434 211.78C354.286 210.353 352.772 209.222 350.892 208.387C349.048 207.517 346.838 207.082 344.263 207.082C340.817 207.082 337.912 207.813 335.545 209.275C333.179 210.701 331.995 212.615 331.995 215.017C331.995 216.931 332.761 218.549 334.292 219.872C335.824 221.194 338.451 222.255 342.175 223.056L356.687 225.979C364.482 227.58 370.294 230.155 374.122 233.705C377.95 237.255 379.864 241.918 379.864 247.695C379.864 252.95 378.316 257.561 375.218 261.528C372.156 265.496 367.945 268.593 362.586 270.82C357.261 273.013 351.119 274.109 344.158 274.109C333.544 274.109 325.087 271.899 318.788 267.479C312.524 263.025 308.853 256.97 307.774 249.313L329.646 248.165C330.308 251.401 331.908 253.872 334.449 255.577C336.989 257.248 340.243 258.083 344.211 258.083C348.108 258.083 351.24 257.335 353.607 255.839C356.008 254.307 357.226 252.341 357.261 249.94C357.226 247.921 356.374 246.268 354.703 244.981C353.033 243.658 350.457 242.649 346.977 241.953L333.092 239.186C325.261 237.62 319.432 234.906 315.604 231.043C311.811 227.18 309.914 222.255 309.914 216.27C309.914 211.119 311.306 206.682 314.09 202.958C316.909 199.234 320.859 196.363 325.94 194.345C331.056 192.326 337.042 191.317 343.897 191.317C354.025 191.317 361.994 193.457 367.806 197.738C373.652 202.019 377.063 207.848 378.037 215.226ZM430.409 274.109C422.161 274.109 415.061 272.439 409.11 269.098C403.194 265.722 398.635 260.954 395.434 254.794C392.232 248.6 390.631 241.274 390.631 232.818C390.631 224.57 392.232 217.331 395.434 211.102C398.635 204.872 403.142 200.017 408.954 196.537C414.8 193.057 421.656 191.317 429.521 191.317C434.811 191.317 439.735 192.17 444.294 193.875C448.888 195.546 452.89 198.069 456.301 201.444C459.746 204.82 462.426 209.066 464.34 214.182C466.254 219.263 467.211 225.214 467.211 232.035V238.142H399.505V224.361H446.278C446.278 221.159 445.582 218.323 444.19 215.852C442.798 213.381 440.866 211.45 438.396 210.058C435.959 208.631 433.123 207.917 429.887 207.917C426.511 207.917 423.518 208.7 420.908 210.266C418.333 211.798 416.314 213.868 414.853 216.478C413.391 219.054 412.643 221.925 412.608 225.092V238.194C412.608 242.162 413.339 245.59 414.8 248.478C416.297 251.367 418.402 253.594 421.117 255.16C423.831 256.726 427.05 257.509 430.774 257.509C433.245 257.509 435.507 257.161 437.56 256.465C439.614 255.769 441.371 254.725 442.833 253.333C444.294 251.941 445.408 250.236 446.174 248.217L466.741 249.574C465.697 254.516 463.557 258.831 460.32 262.52C457.119 266.174 452.977 269.028 447.896 271.081C442.85 273.1 437.021 274.109 430.409 274.109ZM94.1122 404.188V450.543H71.8743V370.361H93.0682V384.508H94.0078C95.7827 379.845 98.7582 376.156 102.934 373.441C107.11 370.692 112.174 369.317 118.125 369.317C123.693 369.317 128.548 370.535 132.689 372.971C136.831 375.407 140.05 378.888 142.347 383.412C144.643 387.901 145.792 393.26 145.792 399.49V450.543H123.554V403.457C123.589 398.55 122.336 394.722 119.795 391.973C117.255 389.189 113.757 387.797 109.303 387.797C106.31 387.797 103.665 388.44 101.368 389.728C99.1062 391.016 97.3313 392.895 96.0437 395.366C94.7908 397.802 94.147 400.743 94.1122 404.188ZM205.967 370.361V387.066H157.681V370.361H205.967ZM168.643 351.151H190.881V425.904C190.881 427.957 191.194 429.558 191.821 430.706C192.447 431.82 193.317 432.603 194.431 433.055C195.579 433.508 196.902 433.734 198.398 433.734C199.442 433.734 200.486 433.647 201.53 433.473C202.574 433.264 203.375 433.108 203.932 433.003L207.429 449.551C206.315 449.899 204.749 450.299 202.731 450.752C200.712 451.239 198.259 451.535 195.37 451.639C190.011 451.848 185.313 451.135 181.276 449.499C177.274 447.863 174.159 445.323 171.932 441.878C169.705 438.432 168.608 434.082 168.643 428.827V351.151ZM255.82 452.109C247.711 452.109 240.699 450.386 234.783 446.941C228.901 443.461 224.36 438.624 221.158 432.429C217.956 426.2 216.356 418.978 216.356 410.765C216.356 402.483 217.956 395.244 221.158 389.049C224.36 382.82 228.901 377.983 234.783 374.537C240.699 371.057 247.711 369.317 255.82 369.317C263.929 369.317 270.924 371.057 276.805 374.537C282.721 377.983 287.28 382.82 290.482 389.049C293.684 395.244 295.285 402.483 295.285 410.765C295.285 418.978 293.684 426.2 290.482 432.429C287.28 438.624 282.721 443.461 276.805 446.941C270.924 450.386 263.929 452.109 255.82 452.109ZM255.924 434.883C259.613 434.883 262.693 433.839 265.164 431.75C267.635 429.628 269.497 426.739 270.75 423.085C272.037 419.431 272.681 415.272 272.681 410.609C272.681 405.945 272.037 401.787 270.75 398.133C269.497 394.478 267.635 391.59 265.164 389.467C262.693 387.344 259.613 386.283 255.924 386.283C252.201 386.283 249.069 387.344 246.528 389.467C244.022 391.59 242.126 394.478 240.838 398.133C239.585 401.787 238.959 405.945 238.959 410.609C238.959 415.272 239.585 419.431 240.838 423.085C242.126 426.739 244.022 429.628 246.528 431.75C249.069 433.839 252.201 434.883 255.924 434.883Z" fill="white" fill-opacity="0.6"></path><g filter="url(#filter0_f_139_53)">
<path d="M55.7603 399.537L215.644 40L315.672 42.7784L445.61 410.366L55.7603 399.537Z" fill="url(#paint0_linear_139_53)" fill-opacity="0.5"></path>
</g><path d="M360 526.043C393.604 520.376 465.85 490.243 486 415.043" stroke="white" stroke-opacity="0.68" stroke-width="9"></path><defs>
<filter id="filter0_f_139_53" x="15.7607" y="0" width="469.85" height="450.366" filterUnits="userSpaceOnUse" color-interpolation-filters="sRGB">
<feFlood flood-opacity="0" result="BackgroundImageFix"></feFlood>
<feBlend mode="normal" in="SourceGraphic" in2="BackgroundImageFix" result="shape"></feBlend>
<feGaussianBlur stdDeviation="20" result="effect1_foregroundBlur_139_53"></feGaussianBlur>
</filter>
<linearGradient id="paint0_linear_139_53" x1="260.787" y1="41.2539" x2="250.685" y2="404.952" gradientUnits="userSpaceOnUse">
<stop stop-color="white"></stop>
<stop offset="1" stop-color="white" stop-opacity="0"></stop>
</linearGradient>
</defs></svg>